<?xml version="1.0" encoding="utf-8"?>
<!-- Generator: Adobe Illustrator 24.1.2, SVG Export Plug-In . SVG Version: 6.00 Build 0)  -->
<svg version="1.1" id="Layer_1" xmlns="http://www.w3.org/2000/svg" xmlns:xlink="http://www.w3.org/1999/xlink" x="0px" y="0px"
	 viewBox="0 0 54 29" style="enable-background:new 0 0 54 29;" xml:space="preserve">
<style type="text/css">
	.st0{fill:#595757;}
	.st1{fill:#FFFFFF;}
</style>
<g>
	<g>
		<polygon class="st0" points="33.35,1 13.8,28 2.69,28 22.23,1 		"/>
		<polygon class="st0" points="32.85,1 13.3,28 2.19,28 21.73,1 		"/>
	</g>
	<g>
		<g>
			<polygon points="32.95,1 13.4,28 2.29,28 21.83,1 			"/>
		</g>
		<g>
			<polygon class="st1" points="32.45,1 12.9,28 1.79,28 21.33,1 			"/>
		</g>
	</g>
</g>
<g>
	<g>
		<polygon class="st0" points="53.56,28 38.22,28 23.69,17.48 28.96,10.19 		"/>
		<polygon class="st0" points="53.06,28 37.72,28 23.19,17.48 28.46,10.19 		"/>
	</g>
	<g>
		<g>
			<polygon points="53.16,28 37.82,28 23.29,17.48 28.56,10.19 			"/>
		</g>
		<g>
			<polygon class="st1" points="52.66,28 37.32,28 22.79,17.48 28.06,10.19 			"/>
		</g>
	</g>
</g>
<g>
	<g>
		<polygon class="st0" points="35.19,2.19 44.9,9.22 44.9,20 44.45,20 29.92,9.48 		"/>
		<polygon class="st0" points="34.69,2.19 44.4,9.22 44.4,20 43.95,20 29.42,9.48 		"/>
	</g>
	<g>
		<g>
			<polygon points="34.79,2.19 44.5,9.22 44.5,20 44.05,20 29.52,9.48 			"/>
		</g>
		<g>
			<polygon class="st1" points="34.29,2.19 44,9.22 44,20 43.55,20 29.02,9.48 			"/>
		</g>
	</g>
</g>
</svg>
